<svg xmlns="http://www.w3.org/2000/svg" xmlns:xlink="http://www.w3.org/1999/xlink" viewBox="0,0,256,256" width="64px" height="64px" fill-rule="nonzero"><g fill="#ffffff" fill-rule="nonzero" stroke="none" stroke-width="1" stroke-linecap="butt" stroke-linejoin="miter" stroke-miterlimit="10" stroke-dasharray="" stroke-dashoffset="0" font-family="none" font-weight="none" font-size="none" text-anchor="none" style="mix-blend-mode: normal"><g transform="scale(8,8)"><path d="M6,7.03125c-0.30859,0 -0.59766,0.05859 -0.875,0.14453l2.91406,1.85547h15.92187l2.91406,-1.85547c-0.27734,-0.08594 -0.56641,-0.14453 -0.875,-0.14453zM4.11328,7.71875c-0.67578,0.55078 -1.11328,1.37891 -1.11328,2.3125v13c0,1.65234 1.34766,3 3,3h20c1.65234,0 3,-1.34766 3,-3v-13c0,-0.93359 -0.4375,-1.76172 -1.11328,-2.3125l-11.88672,7.5625zM6,12.44531l10,6.36719l10,-6.36719v11.58594h-20z"></path></g></g></svg>